<?xml version="1.0" encoding="utf-8"?>
<!-- Generator: Adobe Illustrator 15.1.0, SVG Export Plug-In . SVG Version: 6.00 Build 0)  -->
<!DOCTYPE svg PUBLIC "-//W3C//DTD SVG 1.1//EN" "http://www.w3.org/Graphics/SVG/1.1/DTD/svg11.dtd">
<svg version="1.1" id="Layer_1" xmlns="http://www.w3.org/2000/svg" xmlns:xlink="http://www.w3.org/1999/xlink" x="0px" y="0px"
	 width="310.721px" height="74.667px" viewBox="0 0 310.721 74.667" enable-background="new 0 0 310.721 74.667"
	 xml:space="preserve">
<g>
	<g>
		<path fill="#231F20" d="M80.809,60.923h3.651l2.272,12.606h-3.632l-0.331-2.261h-4.875l-1.398,2.261h-3.787L80.809,60.923z
			 M79.293,68.833h3.166l-0.524-4.538h-0.039L79.293,68.833z"/>
		<path fill="#231F20" d="M100.559,68.126c-0.777,3.391-1.903,5.668-6.914,5.668c-3.613,0-5.613-1.642-5.613-3.638
			c0-1.06,0.194-1.818,0.388-2.648l1.574-6.585h3.612l-1.612,6.744c-0.136,0.601-0.35,1.254-0.35,1.924
			c0,0.937,0.776,1.502,2.078,1.502c2.486,0,2.875-1.678,3.379-3.673l1.496-6.497h3.613L100.559,68.126z"/>
		<path fill="#231F20" d="M115.356,63.747h-4.079l-2.272,9.782h-3.613l2.272-9.782h-4.079l0.621-2.824h11.771L115.356,63.747z"/>
		<path fill="#231F20" d="M123.414,60.657c2.408,0,6.176,0.812,6.176,5.332c0,4.433-2.875,7.805-7.847,7.805
			c-3.865,0-6.099-2.066-6.099-5.58C115.645,64.03,118.636,60.657,123.414,60.657z M122.035,71.093c2.603,0,3.943-2.825,3.943-4.82
			c0-1.872-0.738-2.914-2.681-2.914c-2.797,0-4.04,2.79-4.04,4.874C119.257,69.856,120.112,71.093,122.035,71.093z"/>
		<path fill="#231F20" d="M132.967,60.923h4.972l0.661,8.986h0.039l4.778-8.986h4.972l-2.894,12.606h-3.418l2.603-10.012h-0.039
			l-5.478,10.012h-2.777l-0.816-10.012h-0.039l-2.059,10.012h-3.419L132.967,60.923z"/>
		<path fill="#231F20" d="M156.504,60.657c2.408,0,6.176,0.812,6.176,5.332c0,4.433-2.875,7.805-7.847,7.805
			c-3.865,0-6.098-2.066-6.098-5.58C148.735,64.03,151.726,60.657,156.504,60.657z M155.125,71.093c2.602,0,3.942-2.825,3.942-4.82
			c0-1.872-0.738-2.914-2.68-2.914c-2.797,0-4.04,2.79-4.04,4.874C152.347,69.856,153.202,71.093,155.125,71.093z"/>
		<path fill="#231F20" d="M175.011,63.747h-4.079l-2.273,9.782h-3.612l2.272-9.782h-4.079l0.621-2.824h11.771L175.011,63.747z"/>
		<path fill="#231F20" d="M177.689,60.923h3.612l-2.894,12.606h-3.613L177.689,60.923z"/>
		<path fill="#231F20" d="M183.222,60.923h3.632l0.564,9.34h0.039l4.662-9.34h3.806l-7.186,12.606h-4.118L183.222,60.923z"/>
		<path fill="#231F20" d="M197.088,60.923h11.071l-0.662,2.824h-7.458l-0.446,2.014h6.875l-0.582,2.542h-6.877l-0.544,2.401h7.517
			l-0.66,2.825h-11.111L197.088,60.923z"/>
		<path fill="#231F20" d="M226.372,65.213c0.039-1.183-1.029-1.854-2.312-1.854c-2.932,0-4.155,2.684-4.155,4.944
			c0,1.783,0.951,2.79,2.816,2.79c1.708,0,2.641-0.53,3.186-2.031h-2.545l0.563-2.437h5.769l-1.612,6.904h-2.311l0.076-1.271h-0.039
			c-0.835,1.041-1.787,1.536-4.02,1.536c-2.642,0-5.497-1.253-5.497-5.491c0-0.953,0.524-7.646,7.828-7.646
			c3.495,0,5.768,1.43,5.671,4.556H226.372z"/>
		<path fill="#231F20" d="M233.323,60.923h6.798c2.525,0,4.448,0.582,4.448,3.267c0,1.889-0.99,3.23-3.166,3.514v0.034
			c1.029,0.229,1.418,0.883,1.418,2.102c0,0.918-0.059,1.625-0.059,2.349c0,0.441,0,0.988,0.214,1.342h-3.633
			c-0.058-0.247-0.116-0.478-0.116-0.725c0-0.652,0.098-1.324,0.098-2.172c0-1.111-0.525-1.694-1.807-1.694h-2.409l-1.048,4.591
			h-3.612L233.323,60.923z M235.653,66.502h2.875c1.302,0,2.428-0.371,2.428-1.73c0-1.077-0.99-1.307-1.942-1.307h-2.661
			L235.653,66.502z"/>
		<path fill="#231F20" d="M253.268,60.657c2.409,0,6.177,0.812,6.177,5.332c0,4.433-2.875,7.805-7.847,7.805
			c-3.866,0-6.1-2.066-6.1-5.58C245.498,64.03,248.489,60.657,253.268,60.657z M251.889,71.093c2.604,0,3.942-2.825,3.942-4.82
			c0-1.872-0.738-2.914-2.68-2.914c-2.797,0-4.04,2.79-4.04,4.874C249.111,69.856,249.966,71.093,251.889,71.093z"/>
		<path fill="#231F20" d="M273.192,68.126c-0.776,3.391-1.903,5.668-6.915,5.668c-3.613,0-5.612-1.642-5.612-3.638
			c0-1.06,0.194-1.818,0.389-2.648l1.573-6.585h3.611l-1.612,6.744c-0.136,0.601-0.35,1.254-0.35,1.924
			c0,0.937,0.777,1.502,2.079,1.502c2.486,0,2.875-1.678,3.38-3.673l1.495-6.497h3.612L273.192,68.126z"/>
		<path fill="#231F20" d="M277.132,60.923h6.818c2.485,0,4.002,1.518,4.002,3.761c0,3.178-2.585,4.767-5.964,4.767h-3.205
			l-0.95,4.079h-3.613L277.132,60.923z M279.405,66.749h2.544c1.671,0,2.39-0.724,2.39-1.766c0-1.219-1.049-1.359-2.176-1.359
			h-2.039L279.405,66.749z"/>
	</g>
	<g>
		<defs>
			<rect id="SVGID_1_" width="310.721" height="84.396"/>
		</defs>
		<clipPath id="SVGID_2_">
			<use xlink:href="#SVGID_1_"  overflow="visible"/>
		</clipPath>
		<g clip-path="url(#SVGID_2_)">
			<path fill="#0066E9" d="M12.834,47.537c-0.022,0.012-2.154,1.207-2.528,1.368c-1.083,0.468-3.57,1.128-5.704,1.128h0
				c-1.373,0-2.359-0.281-2.851-0.812c-0.339-0.363-0.487-0.686-0.43-0.931c0.402-1.69,3.03-2.7,7.03-2.7
				c2.037,0,4.145,0.279,5.26,0.699c0.253,0.071,0.509,0.146,0.767,0.227C13.868,46.892,13.358,47.228,12.834,47.537 M46.558,13.204
				c0.729-1.006,1.524-2.057,2.399-2.916c0.914-0.898,2.092-1.892,3.6-3.036c1.562-1.185,7.914-5.373,10.552-5.373
				c0.464,0,0.765,0.128,0.923,0.391c0.221,0.368-0.152,1.514-0.429,1.97c-2.472,4.077-6.292,7.853-9.967,9.858
				c-0.99,0.54-1.904,1.134-2.82,1.741c-1.219,0.701-4.43,2.44-8.607,3.863C43.207,18.167,45.89,14.125,46.558,13.204
				 M37.195,53.798l0.235-0.001l0.045,0.013l0.051-0.042c0.102-0.047,0.749-0.159,1.373-0.269c3.15-0.552,4.784-0.932,4.974-1.484
				c0.027-0.081,0.013-0.168-0.041-0.242c-0.095-0.132-0.308-0.215-0.416-0.215c-0.702,0.009-1.41,0.091-2.096,0.17
				c-0.72,0.084-1.465,0.171-2.196,0.171l-0.112-0.001c-2.139-0.027-3.886-0.22-5.498-0.605c-1.475-0.355-8.02-2.309-11.116-3.609
				c-0.352-0.159-0.732-0.339-1.136-0.528c-0.245-0.115-0.5-0.235-0.761-0.357c1.132-0.655,2.118-1.306,2.863-1.887l0.496-0.352
				c4.021-2.927,7.057-6.854,9.495-10.31c1.463-2.074,2.86-4.34,4.04-6.555l0.169-0.319c0.207-0.392,0.471-0.891,0.762-1.431
				c0.05-0.054,0.091-0.109,0.125-0.163c0.261-0.414,0.554-0.895,0.921-1.501c0.427-0.705,0.958-1.58,1.667-2.721
				c3.252-0.873,7.719-2.314,10.695-4.266l0.15-0.098c3.467-1.965,11.758-7.151,13.852-12.832c0.508-1.375,0.35-2.617-0.444-3.496
				C64.773,0.292,64.035,0,63.101,0c-5.502,0-16.492,9.95-18.284,11.781c-3.058,3.122-7.495,8.258-8.469,9.478
				c-0.92,0.173-1.852,0.31-2.763,0.405l-0.607,0.044l-0.488,0.06c-1.272,0.17-2.587,0.255-3.909,0.255
				c-3.425,0-6.756-0.568-9.632-1.646c-2.479-0.928-5.704-2.51-7-4.776c-0.374-0.653-0.774-2.052-0.858-2.776
				c-0.509-4.396,5.107-6.394,9.907-7.295c1.352-0.254,2.839-0.378,4.543-0.378c1.413,0,2.856,0.085,4.204,0.177
				c0.36,0.025,0.728,0.069,1.097,0.112c0.559,0.068,1.138,0.137,1.697,0.138c0.139,0,0.301-0.117,0.386-0.225
				c0.092-0.121,0.09-0.224,0.072-0.291c-0.155-0.567-3.272-1.259-3.628-1.336c-1.409-0.305-2.911-0.459-4.466-0.459
				c-5.496,0-10.621,1.882-13.711,5.036c-0.942,0.96-1.335,2.195-1.499,3.062c-0.032,0.168-0.029,0.322-0.024,0.47
				c0.003,0.16,0.007,0.31-0.038,0.458l-0.012,0.037l0.038,0.364c0.074,0.732,0.151,1.49,0.432,2.189
				c2.187,5.471,8.948,7.373,13.844,8.327c1.023,0.198,2.134,0.291,3.496,0.291c0.887,0,1.79-0.039,2.662-0.077l0.463-0.021
				c0.423,0.021,0.834,0.025,1.146,0.008c0.48-0.024,1.688-0.188,3.367-0.502c-0.365,0.476-0.707,0.927-1.025,1.346
				c-0.371,0.489-0.709,0.935-1.005,1.319l-0.176,0.206c-0.23,0.273-0.441,0.523-0.604,0.728l-0.478,0.605
				c-2.12,2.691-8.575,10.883-12.71,15.207c-1.105,1.079-2.021,1.958-2.872,2.711c-0.93-0.301-1.771-0.506-2.556-0.62
				c-0.301-0.069-0.589-0.133-0.85-0.18c-1.208-0.213-2.619-0.331-3.973-0.331c-2.427,0-6.734,0.396-8.301,3.046l-0.092,0.148
				c-0.182,0.289-0.405,0.647-0.349,1.038c-0.167,0.453-0.056,0.977,0.332,1.56c0.044,0.265,0.212,0.422,0.362,0.562
				c0.078,0.072,0.15,0.142,0.206,0.222l0.055,0.055c1.199,0.778,2.709,1.174,4.49,1.174c3.097,0,6.485-1.152,9.417-2.232
				c1.016-0.381,2.19-0.902,3.401-1.511c0.78,0.322,1.576,0.667,2.365,1.026c0.165,0.073,0.324,0.139,0.466,0.192
				c0.256,0.121,0.512,0.245,0.77,0.368c0.623,0.301,1.269,0.61,1.914,0.885l0.764,0.325c2.141,0.913,4.356,1.855,6.625,2.575
				C32.33,53.682,35.786,53.798,37.195,53.798"/>
		</g>
		<g clip-path="url(#SVGID_2_)">
			<path fill="#0066E9" d="M228.054,30.01c-0.991,0.445-5.237,1.938-6.858,2.077c-0.202,0.037-0.411,0.072-0.628,0.104
				c0.317-0.534,0.708-1.234,1.062-1.865l0.389-0.692c3.443-6.447,8.797-13.11,13.972-17.387c1.354-1.118,2.928-2.198,3.527-2.601
				c0.335,0.773,0.494,1.459,0.513,2.195c0.047,1.815-0.44,4.236-0.927,5.358C237.015,22.039,232.548,27.993,228.054,30.01
				 M240.029,22.649c1.118-1.698,1.94-3.819,2.515-6.486c0.499-2.307-0.031-3.896-0.704-5.908l-0.217-0.62
				c-0.1-0.286-0.262-0.602-0.497-0.961c2.48-1.36,5.634-2.388,7.854-3.014c0.717-0.203,0.988-0.38,0.967-0.634
				c-0.017-0.177-0.163-0.393-1.165-0.489c-2.232-0.212-6.51,1.899-6.546,1.918l-0.302,0.156c-0.511,0.271-1.085,0.588-1.671,0.916
				c-0.615-0.722-1.332-1.442-1.915-2.028l-0.056-0.055c-1.293-1.195-2.705-2.085-4.198-2.646c-1.91-0.718-3.747-1.066-5.613-1.066
				c-0.266,0-0.537,0.006-0.811,0.021c-6.96,0.372-11.9,1.96-17.057,5.483c-2.167,1.48-4.979,4.519-6.247,6.429
				c-1.217,1.828-2.385,4.912-2.158,7.023c0.238,2.221,2.551,4.715,4.852,5.232c1.887,0.426,3.705,0.279,5.673-0.46
				c3.166-1.188,5.911-2.683,8.393-4.571c1.621-1.231,5.343-5.069,6.295-6.823c0.266-0.489,0.558-2.06,0.246-2.587
				c-0.175-0.291-0.511-0.295-0.891,0.074l-0.039,0.04l-0.014,0.055c-1.168,4.917-11.314,12.941-17.823,12.941
				c-1.831,0-3.268-0.607-4.271-1.806c-0.645-0.768-0.665-1.822-0.589-2.847c0.084-1.149,0.815-2.605,1.416-3.502
				c4.136-6.187,14.285-12.81,22.798-12.81c0.586,0,1.16,0.032,1.71,0.097c3.068,0.361,5.086,0.729,7.237,2.759
				c0.652,0.631,1.191,1.265,1.61,1.883c-0.703,0.415-1.532,0.917-2.088,1.323c-0.401,0.292-0.805,0.571-1.189,0.837l-0.185,0.128
				c-2.283,1.581-5.57,3.953-7.743,6.291c-1.403,1.511-2.738,3.157-4.029,4.748c-0.551,0.678-1.1,1.354-1.652,2.021
				c-0.707,0.849-1.479,1.679-2.229,2.481c-0.428,0.459-0.854,0.917-1.271,1.379c-0.13,0.146-0.477,0.549-0.912,1.059
				c-0.946,1.108-2.707,3.172-2.917,3.315l-0.233,0.241c-0.782-0.139-1.429-0.34-1.924-0.602c-0.823-0.433-1.093-0.483-1.223-0.483
				c-0.203,0-0.264,0.136-0.276,0.177c-0.127,0.38,0.922,1.206,1.378,1.542c0.233,0.173,0.594,0.33,1.073,0.464
				c-0.157,0.182-0.325,0.383-0.5,0.596c-0.199,0.294-0.585,0.761-1.118,1.354c-0.103,0.119-0.199,0.229-0.296,0.325
				c-0.842,0.923-1.771,1.872-2.132,2.222c-0.664,0.641-1.309,1.287-1.951,1.929c-2.118,2.123-4.119,4.126-6.637,5.804
				c-2.72,1.811-8.179,4.848-14.183,4.848c-2.019,0-3.928-0.353-5.674-1.047c-1.556-0.617-3.486-1.878-4.292-3.307
				c-1.664-2.95-1.649-5.916,0.046-8.816c3.595-6.155,13.989-10.29,21.443-10.29c1.942,0,3.659,0.261,5.097,0.774
				c1.54,0.548,3.295,2.021,3.515,3.955c0.35,3.107-2.692,6.161-4.963,7.337c-2.874,1.488-6.092,2.912-10.149,3.258
				c-0.819,0.068-1.648-0.023-2.453-0.113c-0.684-0.077-1.394-0.156-2.104-0.138l-0.053,0.009c-0.15,0.048-0.258,0.154-0.301,0.298
				c-0.063,0.208,0.025,0.45,0.142,0.596c0.63,0.787,2.109,0.888,3.33,0.888l0.303-0.001c4.906-0.029,12.562-2.739,15.706-6.583
				c1.542-1.884,2.557-5.08,1.401-7.291c-0.497-0.948-1.104-1.714-1.854-2.341c-2.438-2.026-6.184-2.452-8.896-2.452
				c-3.16,0-6.576,0.583-9.137,1.561c-4.199,1.6-11.362,6.211-13.408,11.025c-1.423,3.352-0.247,9.172,3.155,11.185
				c3.375,1.996,6.75,2.967,10.32,2.967c10.389,0,18.002-2.735,24.687-8.869c1.738-1.597,3.173-3.483,4.562-5.313
				c0.867-1.223,1.718-2.486,2.531-3.755c0.475-0.012,0.945-0.035,1.453-0.062C228.729,33.185,235.85,29.002,240.029,22.649"/>
		</g>
		<g clip-path="url(#SVGID_2_)">
			<path fill="#0066E9" d="M240.653,46.797l-0.105,0.064c-1.109,0.684-1.873,1.03-2.272,1.03c-0.059,0-0.134-0.009-0.163-0.049
				c-0.018-0.025-0.067-0.131,0.038-0.458c0.791-2.424,6.396-7.975,8.832-10.135c1.987-1.763,6.202-5.098,7.937-5.098
				c0.323,0,0.521,0.117,0.622,0.367c0.117,0.297-0.33,0.878-0.571,1.189l-0.105,0.139c-0.86,1.149-2.326,2.465-3.743,3.737
				c-0.858,0.77-1.667,1.497-2.323,2.166C246.377,42.225,243.633,45.03,240.653,46.797 M240.843,28.545
				c0.466-0.454,0.93-0.908,1.379-1.367c3.056-3.123,6.203-5.87,9.536-8.778l1.824-1.597c1.587-1.399,3.386-2.985,5.124-3.925
				l0.094-0.054c0.646-0.372,1.079-0.561,1.291-0.561l0.025,0c0.035,0.951-9.321,9.289-11.8,11.307
				c-0.494,0.402-1.01,0.802-1.529,1.205c-1.082,0.837-2.198,1.703-3.161,2.625c-1.162,1.113-3.25,2.555-4.778,3.611
				c-0.384,0.275-0.726,0.513-1.014,0.709C238.742,30.597,239.81,29.555,240.843,28.545 M293.055,20.977
				c-0.031-0.082-0.131-0.222-0.425-0.222h-3.25c-0.255,0-0.571,0.103-0.863,0.279c-0.259,0.146-2.676,2.734-2.873,2.955
				l-0.188,0.212c-1.993,2.243-3.991,4.452-5.944,6.564h-3.206c-0.324,0-0.763,0.172-0.999,0.393l-1.006,0.942
				c-0.216,0.2-0.193,0.37-0.16,0.452c0.031,0.084,0.13,0.224,0.425,0.224h3.072c-4.654,4.966-10.378,10.851-14.11,13.261
				c-1.826,1.093-4.359,2.368-5.481,2.368c-0.232,0-0.377-0.055-0.43-0.155c-0.29-1.042,9.476-11.466,13.235-15.474h1.068
				c0.324,0,0.761-0.173,0.999-0.394l1.008-0.943c0.214-0.201,0.191-0.37,0.158-0.453c-0.032-0.083-0.131-0.221-0.425-0.221h-0.918
				l1.157-1.23c3.736-3.971,6.688-7.106,7.178-7.848l0.232-0.256c0.212-0.2,0.191-0.369,0.158-0.452
				c-0.033-0.083-0.131-0.223-0.427-0.223h-3.25c-0.253,0-0.567,0.102-0.861,0.278c-0.267,0.151-2.758,2.826-2.875,2.956
				l-0.191,0.214c-1.992,2.246-3.991,4.452-5.939,6.562h-2.706c-0.325,0-0.764,0.172-0.999,0.393l-1.006,0.943
				c-0.218,0.2-0.193,0.369-0.162,0.453c0.033,0.083,0.132,0.222,0.427,0.222h2.572c-7.148,7.619-12.129,12.24-14.412,13.373
				c-0.143,0.071-0.384,0.206-0.683,0.371c-0.259,0.146-0.561,0.313-0.874,0.481c-1.107,0.6-1.808,0.903-2.112,0.903h-0.003
				c-0.042-0.015-0.062-0.035-0.073-0.073c-0.035-0.111-0.062-0.594,1.071-2.189c2.296-3.266,6.582-7.329,9.713-10.295
				c0.452-0.428,0.879-0.833,1.272-1.208c0.323-0.31,0.65-0.61,0.963-0.896c1.344-1.232,2.035-1.897,1.854-2.362
				c-0.116-0.297-0.511-0.331-0.799-0.331l-0.021,0.002c-0.174-0.025-0.518-0.03-0.775-0.03c-0.715,0-1.98,0.045-2.335,0.166
				c-0.226,0.078-0.499,0.246-0.763,0.408c-0.273,0.169-0.558,0.345-0.752,0.387c-0.104,0-0.333-0.154-0.554-0.303
				c-0.54-0.362-1.354-0.909-2.503-0.909c-0.321,0-0.652,0.043-0.985,0.127c-4.468,1.136-8.22,3.808-11.606,6.526
				c-0.41,0.328-0.786,0.719-1.149,1.097c-0.368,0.381-0.749,0.777-1.154,1.095c-0.274,0.216-0.482,0.459-0.683,0.694
				c-0.197,0.232-0.384,0.451-0.628,0.64c-0.71,0.548-1.424,1.124-2.146,1.707c-2.456,1.983-4.995,4.033-7.766,5.279l-0.108,0.051
				c-0.347,0.159-1.159,0.534-1.698,0.534c-0.361,0-0.433-0.163-0.454-0.323c-0.117-0.827,1.002-2.571,1.605-3.507
				c0.109-0.174,0.209-0.328,0.289-0.457c1.341-2.176,2.888-4.216,4.247-5.596c2.12-2.156,4.782-4.003,7.359-5.791
				c0.905-0.628,1.844-1.279,2.731-1.926c5.182-3.783,21.981-16.395,20.634-19.847c-0.276-0.715-0.854-1.077-1.714-1.077
				c-2.393,0-6.392,2.843-7.897,3.913l-0.243,0.173c-9.107,6.407-24.694,21.224-29.389,30.801c-0.698,1.422-0.888,3.411,0.258,4.648
				c0.504,0.547,1.169,0.824,1.972,0.824c2.247,0,5.224-2.174,7.398-3.761c0.303-0.22,0.589-0.431,0.883-0.642
				c0.03-0.031,0.064-0.061,0.108-0.092c0.322-0.229,0.913-0.628,1.316-0.898c-0.145,0.565-0.353,1.509-0.37,2.331
				c-0.003,0.117-0.014,0.217-0.038,0.336c-0.04,1.588,0.477,2.495,1.576,2.772c0.299,0.074,0.604,0.112,0.916,0.112
				c1.97,0,3.796-1.474,5.408-2.773c0.194-0.157,0.386-0.311,0.57-0.458l0.049-0.055c0.036-0.062,0.093-0.122,0.175-0.178
				c0.32-0.23,0.911-0.629,1.315-0.899c-0.062,0.244-0.136,0.562-0.204,0.915c-0.01,0.15-0.026,0.311-0.043,0.472
				c-0.055,0.551-0.105,1.071,0.001,1.364c0.324,0.874,1.346,1.636,2.233,1.663l0.066,0.001c0.813,0,1.935-0.422,3.528-1.327
				c0.845-0.481,1.685-1.02,2.423-1.494c0.267-0.172,0.519-0.335,0.756-0.483c0.321-0.213,0.787-0.487,1.132-0.686
				c-0.03,0.135-0.053,0.297-0.062,0.487c-0.008,0.203,0,0.415,0.022,0.636l0.036,0.276c0.142,0.876,0.511,1.646,1.017,2.11
				c0.474,0.434,1.095,0.653,1.851,0.653c2.168,0,5.117-1.822,7.141-3.19l0.452-0.287c0.322-0.213,0.786-0.487,1.133-0.686
				c-0.03,0.135-0.055,0.298-0.063,0.488c-0.006,0.204,0.002,0.415,0.024,0.634l0.036,0.277c0.143,0.889,0.505,1.639,1.017,2.11
				c1.007,0.925,2.611,0.848,4.897-0.267c0.525-0.254,1.08-0.56,1.694-0.933c2.512-1.45,6.868-4.258,7.257-5.583
				c0.075-0.255,0.188-0.641-0.021-0.971c-0.123-0.188-0.438-0.228-0.66-0.112c-0.711,0.369-1.552,1.06-2.363,1.728
				c-0.412,0.339-0.801,0.658-1.144,0.912c-0.307,0.225-3.062,2.239-5.5,3.408c-1.388,0.627-2.341,0.789-2.499,0.484
				c-0.291-1.042,9.477-11.466,13.234-15.474h3.697c0.321,0,0.76-0.173,0.998-0.394l1.008-0.942c0.216-0.2,0.192-0.371,0.159-0.453
				c-0.032-0.083-0.131-0.222-0.425-0.222h-3.547l1.135-1.207c3.75-3.983,6.711-7.128,7.202-7.872l0.23-0.256
				C293.11,21.229,293.088,21.06,293.055,20.977"/>
		</g>
		<g clip-path="url(#SVGID_2_)">
			<path fill="#0066E9" d="M67.776,48.041c-0.116,0-0.209-0.02-0.275-0.056c-0.062-0.032-0.092-0.076-0.104-0.145
				c-0.067-0.419,0.596-1.44,1.691-2.605c6.954-7.414,12.188-11.851,14.358-12.174c0.037-0.005,0.077-0.008,0.121-0.008
				c0.313,0,0.709,0.14,0.803,0.367c0.114,0.275,0.084,0.853-0.71,2.044C80.758,39.813,70.367,48.042,67.776,48.041 M65.214,58.095
				c-0.448,0.523-0.911,1.064-1.312,1.57c-0.252,0.259-0.721,0.79-1.313,1.464c-2.423,2.757-7.465,8.492-9.292,8.492
				c-0.127,0-0.228-0.03-0.307-0.093c-0.018-0.015-0.074-0.058-0.083-0.193c-0.08-1.162,3.018-4.951,3.969-5.942
				c1.47-1.531,8.475-7.296,10.765-8.387C66.97,56.045,66.079,57.085,65.214,58.095 M54.715,43.173
				c-0.318,0.188-0.896,0.625-1.625,1.178c-1.735,1.312-4.637,3.509-5.77,3.509c-0.097,0-0.174-0.017-0.23-0.051
				c-0.062-0.037-0.095-0.089-0.107-0.167c-0.134-0.847,2.002-3.293,2.704-4.097c0.147-0.168,0.261-0.298,0.326-0.378
				c1.259-1.547,9.986-10.234,12.773-10.234c0.233,0,0.405,0.064,0.52,0.198c0.204,0.234,0.17,0.69-0.098,1.314
				c-0.185,0.427-0.529,1.035-0.841,1.479C61.458,37.223,55.952,42.439,54.715,43.173 M39.736,63.451
				c-0.643,0.705-1.137,1.246-1.369,1.512c-0.895,1.023-4.697,4.366-5.922,4.366h-0.001c-0.095-0.008-0.223-0.101-0.231-0.155
				c-0.06-0.354,0.365-1.388,0.607-1.791c2.101-3.48,5.09-5.837,8.257-8.333c0.774-0.61,1.574-1.24,2.352-1.883
				c0.795-0.658,3.08-2.34,3.815-2.485C46.678,55.844,41.68,61.319,39.736,63.451 M40.727,37.298c0.088-0.1,0.188-0.188,0.326-0.288
				c3.765-3.833,6.568-5.944,7.895-5.944c0.141,0,0.265,0.024,0.369,0.073l0.035,0.058c-0.166,1.503-4.844,5.307-7.683,6.535
				c-0.55,0.246-1.409,0.491-2.021,0.651C39.984,38.068,40.406,37.657,40.727,37.298 M98.176,37.555
				c1.804-2.046,6.264-6.027,8.008-6.027c0.09,0,0.17,0.012,0.238,0.034c0.083,0.028,0.137,0.079,0.139,0.105
				c0.098,1.146-4.022,4.587-6.875,6.047l-0.915,0.371c-0.679,0.271-1.197,0.422-1.55,0.506
				C97.494,38.304,97.858,37.916,98.176,37.555 M134.298,30.763h-3.547l1.085-1.151c3.776-4.012,6.757-7.18,7.25-7.926l0.234-0.257
				c0.213-0.2,0.191-0.369,0.157-0.453c-0.032-0.083-0.131-0.222-0.424-0.222h-3.251c-0.252,0-0.568,0.102-0.862,0.279
				c-0.259,0.146-2.677,2.735-2.875,2.955l-0.191,0.214c-1.993,2.245-3.991,4.453-5.94,6.561h-3.207
				c-0.323,0-0.761,0.173-0.998,0.394l-1.007,0.942c-0.215,0.2-0.193,0.369-0.16,0.452c0.033,0.083,0.132,0.223,0.426,0.223h3.072
				c-4.656,4.966-10.381,10.851-14.112,13.261c-1.828,1.093-4.359,2.368-5.481,2.368c-0.232,0-0.378-0.054-0.431-0.155
				c-0.29-1.042,9.82-11.83,13.238-15.474h1.067c0.321,0,0.759-0.172,0.999-0.393l1.009-0.945c0.214-0.2,0.19-0.369,0.158-0.452
				c-0.033-0.083-0.132-0.222-0.425-0.222h-0.919l1.133-1.203c3.75-3.984,6.714-7.132,7.204-7.875l0.23-0.256
				c0.215-0.2,0.191-0.368,0.16-0.452c-0.033-0.083-0.131-0.223-0.426-0.223h-3.25c-0.253,0-0.568,0.102-0.862,0.279
				c-0.267,0.15-2.759,2.826-2.875,2.955l-0.191,0.214c-1.993,2.245-3.991,4.453-5.939,6.561h-2.706
				c-0.323,0-0.761,0.173-0.998,0.394l-1.009,0.942c-0.214,0.2-0.191,0.369-0.159,0.452c0.032,0.083,0.132,0.223,0.425,0.223h2.573
				c-7.15,7.619-12.13,12.24-14.414,13.374c-0.226,0.111-0.691,0.38-1.231,0.69l-0.319,0.184c-0.849,0.475-2.457,1.281-3.691,1.347
				c-0.888,0.048-1.424-0.152-1.611-0.588c-0.624-1.467,2.459-5.367,3.595-6.551l0.392-0.43c0.415-0.065,2.651-0.431,4.806-1.033
				c1.241-0.346,2.372-0.938,3.616-1.619c1.547-0.844,3.702-2.548,4.776-4.296c0.219-0.355,0.378-0.667,0.498-1.136
				c0.003-0.019,0.08-0.473,0.038-0.826c-0.036-0.301-0.098-0.55-0.194-0.785c-0.4-0.974-1.253-1.469-2.535-1.469
				c-2.574,0-6.061,1.992-7.078,2.689c-2.322,1.59-4.192,3.095-6.062,4.88c-0.273,0.262-0.533,0.573-0.784,0.874
				c-0.389,0.465-0.79,0.944-1.249,1.255l-0.24,0.163c-0.47,0.319-0.915,0.62-1.375,0.975c-0.548,0.425-1.162,0.765-1.753,1.094
				c-0.481,0.268-0.979,0.543-1.45,0.868c-0.323,0.225-0.681,0.444-1.128,0.692c-0.371,0.205-0.75,0.402-1.132,0.598
				c-0.776,0.4-1.578,0.813-2.305,1.309c-0.769,0.526-1.482,0.852-2.295,1.051l-0.007-0.009c2.55-3.625,5.622-6.983,8.594-10.233
				c0.888-0.97,1.773-1.938,2.644-2.91l0.081-0.088c0.262-0.282,0.659-0.706,0.548-1.089c-0.092-0.321-0.561-0.477-1.431-0.477
				c-0.759,0-1.791,0.135-2.056,0.33c-0.217,0.159-0.424,0.353-0.623,0.541c-0.314,0.295-0.64,0.6-1.005,0.763
				c-0.123-0.074-0.218-0.283-0.325-0.521c-0.234-0.518-0.556-1.227-1.551-1.339c-0.189-0.021-0.39-0.032-0.593-0.032
				c-3.649,0-9.072,3.408-11.588,5.711c-0.406,0.371-0.811,0.754-1.219,1.14c-0.885,0.836-1.799,1.701-2.729,2.448
				c-0.876,0.705-2.334,1.676-4.001,2.666c-2.212,1.314-4.27,2.357-5.552,2.817c0.691-1.224,4.187-5.276,5.906-7.269
				c0.396-0.459,0.72-0.835,0.93-1.082c0.3-0.354,0.931-1.013,1.66-1.776c1.731-1.811,3.074-3.238,3.298-3.741
				c0.118-0.263,0.06-0.444-0.007-0.55c-0.154-0.236-0.509-0.347-1.123-0.347c-0.437,0-0.919,0.058-1.238,0.095
				c-0.151,0.017-0.266,0.032-0.319,0.032c-0.735,0-1.354,0.58-1.852,1.045c-0.258,0.243-0.548,0.516-0.713,0.517
				c-0.024-0.036-0.066-0.132-0.124-0.255c-0.241-0.528-0.501-1.061-0.787-1.287c-0.331-0.262-0.802-0.396-1.4-0.396
				c-3.015,0-8.426,3.251-8.655,3.39c-2.088,1.262-4.376,3.266-6.445,5.645c-0.276,0.319-0.548,0.679-0.812,1.029
				c-0.598,0.793-1.216,1.612-1.993,2.101c-0.273,0.17-0.672,0.445-1.159,0.781c-0.521,0.359-1.143,0.788-1.817,1.232
				c-3.043,2-5.208,2.972-6.621,2.972c-0.643,0-1.103-0.203-1.406-0.618c-0.634-0.866,0.617-3.174,2.142-5.085
				c0.074-0.103,0.169-0.218,0.288-0.363c0.135-0.16,0.293-0.335,0.461-0.511c0.195-0.213,0.379-0.397,0.544-0.55
				c0.238-0.232,0.436-0.418,0.521-0.498c0.209-0.025,0.896-0.114,1.433-0.222c0.032-0.007,0.057-0.012,0.107-0.009l0.029,0.003
				l0.31-0.06c3.379-0.777,6.06-1.898,7.964-3.335c1.406-1.061,4.701-3.546,3.819-6.03c-0.317-0.898-1.296-1.434-2.616-1.434
				c-0.132,0-0.262,0.006-0.387,0.017c-3.06,0.267-7.838,3.45-9.75,4.807c-2.053,1.455-4.066,3.517-5.519,5.656
				c-0.395,0.58-0.697,1.135-1.018,1.721c-0.154,0.284-0.312,0.572-0.483,0.867c-0.559,0.97-0.766,2.711-0.725,3.21
				c0.083,1.084,0.36,1.817,0.99,2.615c0.8,1.016,1.903,1.53,3.277,1.529c1.588,0,3.52-0.677,5.903-2.072
				c0.474-0.274,0.934-0.613,1.364-0.937l0.048-0.036c0.483-0.363,1.084-0.814,1.594-1.105c0.102-0.06,0.155-0.062,0.181-0.065
				c0.045,0.033,0.103,0.197-0.012,0.925c-0.014,0.084-0.024,0.154-0.028,0.198c-0.073,0.866,0.291,1.896,0.905,2.562
				c0.579,0.629,1.314,0.888,2.066,0.72c1.633-0.366,3.48-1.754,5.11-2.979c0.651-0.49,1.268-0.953,1.821-1.315
				c0.068-0.044,0.134-0.087,0.196-0.127l-0.012,0.021c-0.833,1.46-1.792,2.731-2.936,3.883c-1.817,1.832-3.957,3.259-5.998,4.527
				l-0.438,0.269c-0.407,0.247-0.827,0.503-1.221,0.776l-0.643,0.446c-4.05,2.803-13.536,9.367-12.505,14.291
				c0.126,0.603,0.793,1.211,1.339,1.428c0.261,0.104,0.566,0.158,0.908,0.157c1.381,0,3.056-0.86,3.713-1.23
				c3.349-1.89,7.369-5.748,11.948-11.467c0.573-0.715,1.29-1.723,2.049-2.79c1.096-1.539,2.337-3.284,3.496-4.65
				c0.866-1.013,1.582-1.693,2.188-2.081c0.494-0.315,5.511-3.081,7.888-4.365c0.708-0.382,1.1-0.587,1.131-0.604
				c0.009,0.001,0.03,0.017,0.052,0.042c-0.077,0.264-0.175,0.536-0.275,0.817c-0.368,1.038-0.785,2.217-0.375,3.292
				c0.375,0.986,1.399,2.038,2.523,1.956c1.919-0.139,3.736-1.486,5.493-2.791c0.883-0.656,1.719-1.275,2.524-1.708
				c-0.648,1.352-2.699,3.742-3.866,4.82c-0.783,0.725-2.244,1.579-3.655,2.405c-1.013,0.594-1.971,1.153-2.702,1.671
				c-0.493,0.351-0.988,0.693-1.481,1.037c-1.521,1.055-3.09,2.146-4.546,3.383c-2.727,2.316-5.302,4.505-7.099,7.695
				c-0.912,1.619-1.146,3.656,0.387,4.557c0.357,0.209,0.784,0.315,1.271,0.315c0.901,0,2.004-0.354,3.371-1.08
				c4.667-2.48,10.659-9.912,14.623-14.83c0.695-0.859,1.332-1.65,1.897-2.333c0.311-0.378,0.62-0.793,0.917-1.193
				c0.787-1.061,1.601-2.157,2.657-2.838c1.04-0.67,2.174-1.246,3.27-1.805c1.037-0.527,2.108-1.072,3.105-1.699
				c0.208-0.13,0.989-0.577,2.037-1.163c2.138-1.195,3.199-1.739,3.512-1.873l0.024,0.041c-0.098,0.176-0.137,0.375-0.176,0.569
				c-0.031,0.154-0.06,0.299-0.115,0.42c-0.678,1.508-0.594,3.104,0.23,4.382c0.857,1.326,2.36,2.117,4.021,2.117
				c0.505,0,1.016-0.074,1.52-0.221c0.536-0.155,1.366-0.561,2.611-1.275c0.845-0.481,1.683-1.02,2.423-1.494
				c0.267-0.171,0.519-0.334,0.756-0.483c0.321-0.214,0.787-0.487,1.132-0.686c-0.029,0.135-0.053,0.297-0.062,0.487
				c-0.007,0.197,0,0.409,0.022,0.635l0.036,0.277c0.144,0.89,0.506,1.64,1.018,2.11c0.471,0.433,1.094,0.653,1.851,0.653
				c2.167-0.001,5.114-1.822,7.139-3.19l0.452-0.287c0.321-0.214,0.787-0.487,1.133-0.686c-0.03,0.136-0.054,0.298-0.063,0.489
				c-0.006,0.205,0.001,0.417,0.024,0.634l0.037,0.276c0.143,0.889,0.504,1.639,1.017,2.11c1.006,0.926,2.611,0.847,4.898-0.267
				c0.522-0.253,1.079-0.559,1.695-0.933c2.512-1.45,6.866-4.259,7.255-5.583c0.075-0.254,0.19-0.64-0.022-0.971
				c-0.121-0.189-0.436-0.228-0.658-0.113c-0.712,0.369-1.554,1.061-2.366,1.73c-0.412,0.337-0.799,0.655-1.142,0.908
				c-0.307,0.226-3.065,2.242-5.5,3.409c-1.389,0.628-2.339,0.788-2.5,0.483c-0.291-1.042,9.818-11.829,13.236-15.473h3.696
				c0.323,0,0.76-0.172,0.999-0.393l1.009-0.944c0.214-0.201,0.191-0.37,0.158-0.453C134.691,30.903,134.592,30.763,134.298,30.763"
				/>
		</g>
		<g clip-path="url(#SVGID_2_)">
			<path fill="#0066E9" d="M164.412,37.317c-1.734,0-2.854,0.859-2.854,2.19c0,0.622,0.196,1.14,0.564,1.499
				c0.327,0.317,0.774,0.491,1.26,0.491c0.623,0,1.21-0.286,1.571-0.765c0.258-0.345,0.512-0.933,0.31-1.816
				c0.894-0.215,1.638,0.305,1.707,1.142c0.065,0.782-0.501,1.804-2.311,2.106c-0.479,0.081-0.972,0.119-1.512,0.119
				c-1.587,0-3.27-0.354-4.895-0.695c-1.838-0.386-3.745-0.786-5.557-0.692c-2.143,0.109-4.882,0.973-5.543,3.044
				c-0.339,1.065-0.374,2.561,0.316,3.506c0.55,0.75,1.461,0.972,2.571,0.608c0.334-0.109,1.428-0.544,1.503-1.554
				c0.05-0.668-0.149-1.034-0.325-1.223c-0.191-0.205-0.461-0.318-0.761-0.318c-0.477,0-0.968,0.281-1.222,0.7
				c-0.202,0.334-0.237,0.717-0.106,1.096c-0.137-0.039-0.307-0.144-0.353-0.192c-0.377-0.397-0.473-0.926-0.262-1.446
				c0.239-0.59,0.809-1.004,1.419-1.032c0.34-0.015,0.67-0.024,0.994-0.024c1.524,0,2.743,0.217,3.925,0.703
				c-0.24,0.912-0.672,1.87-1.199,2.651c-1.086,1.612-4.479,3.137-6.984,3.137c-0.913,0-1.639-0.193-2.16-0.574
				c-0.994-0.728-1.458-1.834-1.379-3.29c0.189-3.499,3.423-7.819,5.511-9.026c0.699-0.404,1.474-0.601,2.367-0.601
				c0.965,0,1.89,0.228,2.706,0.429c1.13,0.277,1.981,0.422,2.385,0.004l0.038-0.04l0.012-0.054
				c0.256-1.183-0.756-1.582-1.651-1.934c-1.058-0.417-1.972-0.776-1.499-2.172c0.818-2.405,5.066-5.362,7.706-5.362
				c0.945,0,1.578,0.368,1.885,1.092c0.026,0.06,0.016,0.097,0.004,0.125c-0.104,0.243-0.74,0.482-1.356,0.715
				c-0.978,0.368-2.085,0.786-2.373,1.585c-0.132,0.372-0.071,0.787,0.184,1.232c0.393,0.689,0.994,1.052,1.735,1.052
				c1.572,0,3.239-1.565,3.571-2.861c0.221-0.859-0.187-2.071-0.692-2.701c-1.089-1.358-2.539-2.019-4.433-2.019
				c-1.383,0-2.805,0.367-3.753,0.642c-2.741,0.796-6.637,3.285-6.72,6.331c-0.018,0.686,0.152,1.085,0.29,1.406
				c0.087,0.203,0.157,0.364,0.158,0.544c-0.042,0.102-0.362,0.271-1.643,0.502c-0.128,0.023-0.229,0.042-0.286,0.055
				c-4.702,1.133-7.767,3.747-9.114,7.771c-0.746,2.23-0.754,3.119-0.045,5.276c0.709,2.155,3.615,4.385,5.978,4.586
				c0.289,0.024,0.587,0.037,0.884,0.037c4.667-0.001,9.444-2.947,12.108-5.866c0.386-0.423,0.667-0.941,0.94-1.444
				c0.101-0.187,0.201-0.372,0.307-0.551c1.057,0.293,2.167,0.447,3.226,0.447c3,0,5.279-1.19,6.42-3.353
				c0.288-0.544,0.588-1.184,0.632-1.793c0.056-0.767-0.201-1.479-0.741-2.061C167.09,37.84,165.764,37.317,164.412,37.317"/>
		</g>
		<g clip-path="url(#SVGID_2_)">
			<path fill="#0066E9" d="M287.227,47.501c-1.782,0-3.231-1.477-3.231-3.29c0-1.851,1.44-3.301,3.278-3.301
				c1.721,0,3.175,1.511,3.175,3.301C290.448,46.024,289.003,47.501,287.227,47.501 M287.284,39.835
				c-2.479,0-4.419,1.921-4.419,4.375c0,2.404,1.957,4.361,4.361,4.361c2.399,0,4.352-1.957,4.352-4.361
				C291.578,41.798,289.651,39.835,287.284,39.835"/>
		</g>
		<g clip-path="url(#SVGID_2_)">
			<path fill="#0066E9" d="M287.073,43.773c-0.03,0-0.061,0-0.098-0.003h-0.213v-0.964h0.374c0.502,0,0.591,0.135,0.591,0.419
				C287.728,43.573,287.489,43.773,287.073,43.773 M288.883,43.19c0-0.505-0.253-0.943-0.658-1.14
				c-0.258-0.134-0.496-0.171-1.101-0.171h-1.472v4.651h1.11v-1.856h0.225l1.032,1.856h1.267l-1.216-2.077
				C288.639,44.125,288.883,43.743,288.883,43.19"/>
		</g>
	</g>
</g>
</svg>
